<svg width="276" height="153" viewBox="0 0 276 153" fill="none" xmlns="http://www.w3.org/2000/svg">
<g filter="url(#filter0_d_10_268)">
<path d="M68.4802 63.4462L206.484 63.4463" stroke="#C7E8FF" stroke-width="69.002" stroke-linecap="round"/>
<path d="M202.372 59.9655C202.053 59.9655 201.734 59.9655 201.41 60.4443C201.086 60.9231 200.767 61.8806 201.081 62.5335C201.395 63.1864 202.353 63.5055 203.325 63.3508C204.297 63.196 205.255 62.5577 205.908 61.75C206.56 60.9424 206.88 59.9849 206.565 59.332C206.251 58.6791 205.293 58.3599 204.321 58.5147C203.349 58.6694 202.392 59.3078 200.438 60.9327" stroke="#0066C8" stroke-width="46.0014" stroke-linecap="round"/>
<path d="M193.842 60.4634V70.31" stroke="#C7E8FF" stroke-width="6.13351" stroke-linecap="round"/>
<path d="M192.684 49.6458H194.421" stroke="#C7E8FF" stroke-width="6.13351" stroke-linecap="round"/>
<path d="M205.094 69.7476C205.094 65.7189 205.648 58.5298 206.766 58.4493C207.914 58.3666 211.598 58.042 216.546 58.4444C218.4 58.5952 218.719 59.6515 219.002 60.388C219.285 61.1245 219.47 61.7683 219.565 63.1461C219.661 64.524 219.661 66.6163 219.661 68.7721" stroke="#C7E8FF" stroke-width="6.13351" stroke-linecap="round"/>
<path d="M57.6607 52.7937C57.6607 53.8155 57.8638 55.4529 58.0193 57.0964C58.0977 57.9254 58.2763 62.2947 58.327 68.4486C58.3477 70.9507 58.584 72.682 58.7364 74.7349C59.9136 74.8518 64.5979 74.6456 68.1158 74.3902C68.8329 74.3379 69.8485 74.3379 70.895 74.3379" stroke="#0066C8" stroke-width="6.13351" stroke-linecap="round"/>
<path d="M80.7437 61.7191C80.9468 62.7409 81.7655 66.4096 82.2303 68.9964C82.2826 70.2198 82.3841 71.5617 82.538 72.7389C82.5904 73.3068 82.5904 73.8146 82.5904 74.3378" stroke="#0066C8" stroke-width="6.13351" stroke-linecap="round"/>
<path d="M78.5893 53.1015V52.7937" stroke="#0066C8" stroke-width="6.13351" stroke-linecap="round"/>
<path d="M89.9769 61.4113C89.9769 62.2269 90.1801 63.8674 90.5402 66.171C90.7956 69.1026 91.4112 70.7369 91.822 73.2006C91.9251 73.7192 92.0267 74.0239 92.1313 75.2611" stroke="#0066C8" stroke-width="6.13351" stroke-linecap="round"/>
<path d="M92.7468 66.3357C93.7625 64.3967 96.434 61.5221 97.7174 60.4911C99.0436 59.4256 100.232 59.2569 101.051 59.3585C103.147 59.6185 103.925 62.944 104.441 65.4539C104.75 67.2529 105.156 69.5058 105.927 72.582C106.083 73.3068 106.184 73.8146 106.289 74.9534" stroke="#0066C8" stroke-width="6.13351" stroke-linecap="round"/>
<path d="M113.675 49.4082C113.675 49.8144 113.777 50.6331 114.032 51.9627C114.39 53.4954 115.107 58.3952 115.876 65.9725C116.138 69.4873 116.138 72.3311 116.138 75.2611" stroke="#0066C8" stroke-width="6.13351" stroke-linecap="round"/>
<path d="M124.755 60.1803C123.733 61.5098 121.893 63.1472 120.145 64.9954C118.742 66.4782 117.68 67.1544 117.37 67.513C116.682 68.3113 119.412 69.001 120.8 69.6674C122.323 70.3981 123.826 71.0508 125.058 71.6679C125.368 71.8726 125.672 72.1773 125.982 72.385C126.291 72.5928 126.596 72.6943 126.91 73.1067" stroke="#0066C8" stroke-width="6.13351" stroke-linecap="round"/>
<path d="M135.22 67.259C135.22 67.1575 135.22 67.0559 136.54 67.0036C137.86 66.9513 140.501 66.9513 142.014 66.8497C143.526 66.7481 143.831 66.545 144.761 66.3357" stroke="#0066C8" stroke-width="6.13351" stroke-linecap="round"/>
<path d="M145.068 66.3357C145.068 62.1438 144.865 58.9522 144.253 58.3382C143.413 57.4961 141.794 57.4103 140.41 57.4611C138.75 57.522 137.38 58.7399 136.454 59.8679C135.316 61.2537 134.912 66.705 135.473 69.7166C135.722 71.0495 137.06 71.9741 137.782 73.0513C138.543 74.1871 140.138 74.4363 141.37 74.9518C142.705 75.3627 144.545 75.5689 145.987 74.9565C146.296 74.7502 146.601 74.5471 147.223 74.0301" stroke="#0066C8" stroke-width="6.13351" stroke-linecap="round"/>
<path d="M165.997 62.0269C164.975 60.7989 162.931 59.1646 161.129 58.0289C160.468 57.612 159.438 57.4103 158.259 57.5627C156.745 57.7583 156.561 59.8663 155.894 61.3544C155.297 62.6886 155.225 66.4096 155.633 68.8949C155.953 70.8452 157.373 71.6664 158.656 72.4373C159.994 73.2407 163.812 73.1068 166.249 72.1373C166.508 71.7772 166.711 71.3709 166.917 71.0093C167.123 70.6476 167.326 70.3429 167.536 69.1057" stroke="#0066C8" stroke-width="6.13351" stroke-linecap="round"/>
<path d="M167.536 45.0994C167.637 46.9368 168.047 50.2146 168.202 54.6742C168.347 58.8376 168.662 62.3285 168.868 64.1736C169.173 65.197 169.382 67.7515 169.433 70.9816C169.484 72.1804 169.586 72.4851 169.69 72.799" stroke="#0066C8" stroke-width="6.13351" stroke-linecap="round"/>
<g filter="url(#filter1_d_10_268)">
<path d="M205.752 79.3703L221.605 112.361C222.043 113.274 223.405 113.031 223.501 112.023L225.085 95.3893C225.13 94.9267 225.487 94.5554 225.947 94.4931L239.792 92.6222C240.817 92.4836 240.983 91.0694 240.017 90.6979L207.012 78.0038C206.167 77.6788 205.36 78.5543 205.752 79.3703Z" fill="white"/>
<path d="M205.752 79.3703L221.605 112.361C222.043 113.274 223.405 113.031 223.501 112.023L225.085 95.3893C225.13 94.9267 225.487 94.5554 225.947 94.4931L239.792 92.6222C240.817 92.4836 240.983 91.0694 240.017 90.6979L207.012 78.0038C206.167 77.6788 205.36 78.5543 205.752 79.3703Z" stroke="#B3B3B3"/>
</g>
</g>
<defs>
<filter id="filter0_d_10_268" x="7.62939e-06" y="-6.19888e-06" width="275.138" height="152.442" filterUnits="userSpaceOnUse" color-interpolation-filters="sRGB">
<feFlood flood-opacity="0" result="BackgroundImageFix"/>
<feColorMatrix in="SourceAlpha" type="matrix" values="0 0 0 0 0 0 0 0 0 0 0 0 0 0 0 0 0 0 127 0" result="hardAlpha"/>
<feOffset dy="5.03395"/>
<feGaussianBlur stdDeviation="16.9896"/>
<feComposite in2="hardAlpha" operator="out"/>
<feColorMatrix type="matrix" values="0 0 0 0 0 0 0 0 0 0 0 0 0 0 0 0 0 0 0.25 0"/>
<feBlend mode="normal" in2="BackgroundImageFix" result="effect1_dropShadow_10_268"/>
<feBlend mode="normal" in="SourceGraphic" in2="effect1_dropShadow_10_268" result="shape"/>
</filter>
<filter id="filter1_d_10_268" x="201.148" y="77.4329" width="44.01" height="43.996" filterUnits="userSpaceOnUse" color-interpolation-filters="sRGB">
<feFlood flood-opacity="0" result="BackgroundImageFix"/>
<feColorMatrix in="SourceAlpha" type="matrix" values="0 0 0 0 0 0 0 0 0 0 0 0 0 0 0 0 0 0 127 0" result="hardAlpha"/>
<feOffset dy="4"/>
<feGaussianBlur stdDeviation="2"/>
<feComposite in2="hardAlpha" operator="out"/>
<feColorMatrix type="matrix" values="0 0 0 0 0 0 0 0 0 0 0 0 0 0 0 0 0 0 0.25 0"/>
<feBlend mode="normal" in2="BackgroundImageFix" result="effect1_dropShadow_10_268"/>
<feBlend mode="normal" in="SourceGraphic" in2="effect1_dropShadow_10_268" result="shape"/>
</filter>
</defs>
</svg>
